<svg version="1" xmlns="http://www.w3.org/2000/svg" width="666.667" height="666.667" viewBox="0 0 500.000000 500.000000"><path d="M0 250v250h500v-43.9c0-34.2-.3-44-1.2-44.4-1-.4-1-.6 0-.6 1.4-.1 1.7-4.1.2-4.1-.5 0-1-1.1-1-2.5 0-2.6-1.5-3.1-7.7-2.7-1.3 0-2.3-.3-2.3-.8s-.8-1.1-1.7-1.3c-1-.3 1.7-.5 6-.6l7.7-.1v-28.2l-7.5-7.5c-4.1-4.2-7.5-7.9-7.5-8.3 0-.4 3.4-1.1 7.5-1.5l7.5-.7V0H0v250zm492 154c0 .5-.4 1-1 1-.5 0-1-.5-1-1 0-.6.5-1 1-1 .6 0 1 .4 1 1zm5 5c0 .5-.5 1-1.1 1-.5 0-.7-.5-.4-1 .3-.6.8-1 1.1-1 .2 0 .4.4.4 1z"/></svg>